<svg width="55" height="56" viewBox="0 0 55 56" fill="none" xmlns="http://www.w3.org/2000/svg">
<path d="M25.4912 1.89031C24.5567 2.07293 23.4395 2.42742 22.7198 2.79266C20.9258 3.67351 19.2286 5.52117 18.6055 7.23992C18.5088 7.52996 18.3907 7.75555 18.3369 7.75555C18.2832 7.75555 17.6387 7.65887 16.8868 7.55144C16.1348 7.43328 14.9317 7.28289 14.2119 7.21844C12.7188 7.08953 12.5362 7.1325 12.2998 7.69109C12.128 8.08855 11.4405 11.4616 11.3223 12.3962L11.2578 13.0192H10.7745C10.0762 13.0192 8.81937 13.3093 7.96 13.6637C4.47953 15.0925 2.11625 18.9811 2.12699 23.278C2.13773 24.8678 2.37406 25.8669 3.0723 27.3063C3.49125 28.155 3.73832 28.4772 4.57621 29.3366L5.58597 30.3464L4.95218 31.5925C4.09281 33.2897 3.31937 35.1266 3.30863 35.5134C3.29789 35.7175 3.38383 35.9001 3.52347 36.0075C3.87797 36.2975 5.6182 37.318 7.04691 38.0593L8.33597 38.7468L8.19633 39.2839C8.11039 39.5739 8.01371 40.3259 7.98148 40.9489C7.84183 43.5593 8.78715 45.8044 10.9034 47.8884C12.8907 49.8434 15.5762 51.0251 18.0684 51.0466C19.4756 51.0466 21.2159 50.5632 22.4619 49.8112L23.085 49.4245L23.5147 49.8971C24.0625 50.4987 26.501 52.7009 27.0059 53.0661C27.253 53.238 27.4571 53.3132 27.6289 53.2702C27.919 53.195 29.5196 51.82 30.9268 50.4343L31.9366 49.4352L32.5489 49.8112C36.1475 51.9919 40.8311 51.1755 44.2041 47.7702C45.461 46.5134 46.1162 45.4714 46.6426 43.9567C46.9649 43.0007 46.9864 42.8503 46.9864 41.4323C46.9971 40.3688 46.9434 39.7458 46.8252 39.3268L46.6534 38.7253L47.2549 38.4352C48.1465 37.9948 50.1231 36.8991 50.9502 36.362C51.6162 35.943 51.67 35.8678 51.67 35.5348C51.67 35.1052 50.9717 33.4079 50.0479 31.5925L49.4141 30.3464L50.4131 29.3366C51.8848 27.8434 52.6045 26.3073 52.8409 24.1696C53.1846 21.1081 51.7881 17.3161 49.5645 15.2858C48.2217 14.0612 46.2666 13.1803 44.5909 13.0514L43.7422 12.987L43.667 12.3854C43.5596 11.4616 42.8614 8.07781 42.7002 7.69109C42.4639 7.1325 42.2813 7.08953 40.7881 7.21844C40.0684 7.28289 38.9942 7.4118 38.4034 7.49773C36.3409 7.82 36.6094 7.87371 36.3194 7.11101C35.9541 6.15496 35.127 4.97332 34.2784 4.18914C33.1075 3.11492 31.9688 2.51336 30.2071 2.05144C29.1328 1.76141 26.6192 1.67547 25.4912 1.89031ZM28.252 3.37273C29.2403 4.04949 30.4219 6.77801 30.6797 8.9909L30.7442 9.54949L29.8418 10.0544C29.3477 10.3337 28.6065 10.8063 28.2198 11.1071L27.5 11.6442L26.7803 11.1071C26.3936 10.8063 25.6631 10.3444 25.169 10.0651C24.127 9.47429 24.1485 9.56023 24.5352 7.85223C24.8575 6.42351 25.3623 5.14519 25.9424 4.28582C26.4688 3.4909 26.9522 3.13641 27.5 3.13641C27.7364 3.13641 28.0479 3.23309 28.252 3.37273ZM24.3741 4.25359C23.751 5.42449 23.3858 6.56316 22.9346 8.7868C22.8809 9.01238 22.8702 9.01238 21.5166 8.59344C20.7539 8.35711 20.0557 8.13152 19.9483 8.0993C19.7657 8.0241 19.7871 7.93816 20.1953 7.1325C20.711 6.10125 21.8282 4.90887 22.795 4.33953C23.3536 4.00652 24.5459 3.46941 24.7286 3.45867C24.7715 3.45867 24.6104 3.81316 24.3741 4.25359ZM31.668 4.06023C33.0215 4.71551 34.1494 5.82195 34.794 7.11101C35.041 7.60516 35.2237 8.0241 35.2022 8.03484C35.1807 8.05633 34.6114 8.23894 33.9346 8.44305C33.2578 8.64715 32.5811 8.86199 32.42 8.92644C32.1514 9.02312 32.1192 9.01238 32.0762 8.79754C31.6035 6.52019 31.2598 5.42449 30.6153 4.24285C30.1104 3.29754 30.0996 3.29754 31.668 4.06023ZM16.1348 8.84051C17.0157 8.95867 17.7998 9.07684 17.8858 9.1198C18.0147 9.16277 18.0469 9.28093 18.0039 9.62468C17.8428 10.9245 17.8321 11.2575 17.9395 12.1706C18.0577 13.2555 18.3692 14.5446 18.7452 15.5007L18.9815 16.1022L18.1006 15.4255C16.5323 14.2438 14.9532 13.5134 13.3741 13.2126L12.6543 13.0837L12.708 12.4821C12.794 11.7409 13.2989 9.13055 13.4278 8.7868C13.5352 8.49676 13.5352 8.49676 16.1348 8.84051ZM41.5723 8.76531C41.7012 9.1198 42.2061 11.7302 42.292 12.4821L42.3457 13.0837L41.626 13.2126C40.0469 13.5134 38.4678 14.2438 36.8994 15.4255L36.0186 16.1022L36.3194 15.2751C36.9854 13.4274 37.2325 11.8053 37.0606 10.2155C36.9961 9.53875 36.9961 9.195 37.0713 9.14129C37.2002 9.06609 39.295 8.74383 40.4981 8.62566C40.9385 8.57195 41.336 8.52898 41.3897 8.51824C41.4327 8.51824 41.5186 8.62566 41.5723 8.76531ZM20.8291 9.79656C21.4307 9.97918 22.0967 10.194 22.3223 10.28L22.7198 10.4411L22.7305 12.1921C22.752 15.3825 23.4502 17.9177 24.7823 19.5397C24.9971 19.8083 25.0938 20.0016 25.0078 20.0016C24.9327 20.0016 24.5674 20.1413 24.1914 20.3239L23.5254 20.6354L22.7735 19.7009C21.2911 17.8317 20.1202 15.5759 19.5723 13.5563C19.3575 12.7399 19.3037 12.2673 19.293 11.193C19.2823 9.78582 19.336 9.47429 19.583 9.47429C19.669 9.47429 20.2276 9.62468 20.8291 9.79656ZM35.6963 10.1725C35.9649 12.1813 35.2344 14.9636 33.7842 17.4128C33.2256 18.3688 31.7862 20.3561 31.5713 20.4958C31.4854 20.5387 30.2071 20.0876 29.9815 19.9372C29.96 19.9157 30.0889 19.7223 30.2715 19.4968C31.5606 17.8639 32.2481 15.3395 32.2696 12.1813L32.2803 10.4411L32.7422 10.2585C33.6123 9.92547 35.1807 9.48504 35.3955 9.50652C35.5674 9.528 35.6211 9.64617 35.6963 10.1725ZM25.0293 11.5798C25.4698 11.8483 26.1573 12.3532 26.5547 12.7077C26.9522 13.0622 27.3711 13.3415 27.5 13.3415C27.6289 13.3415 28.0479 13.0622 28.4453 12.7077C29.1006 12.1276 30.6475 11.0856 30.8516 11.0856C30.8946 11.0856 30.9375 11.5046 30.9375 12.0202C30.9375 14.9528 30.1426 17.6921 28.9502 18.8844C28.1553 19.6794 28.1446 19.6579 28.1446 17.2839C28.1446 14.9636 28.1016 14.8132 27.5 14.8132C26.8985 14.8132 26.8555 14.9636 26.8555 17.2839C26.8555 19.6579 26.8448 19.6794 26.0498 18.8844C24.8575 17.6921 24.0625 14.9528 24.0625 12.0202C24.0625 11.5046 24.1055 11.0856 24.1485 11.0856C24.1914 11.0856 24.5889 11.3112 25.0293 11.5798ZM11.0537 16.0378L11.0323 17.6598L10.6993 17.5954C10.5166 17.5632 9.57133 17.4987 8.59379 17.4665C7.26176 17.4235 6.62797 17.445 6.01566 17.5632C5.57523 17.6491 5.19925 17.7136 5.18851 17.7028C5.17777 17.6921 5.36039 17.4343 5.59672 17.1227C6.72465 15.6511 8.93754 14.4587 10.6133 14.4264L11.0645 14.4157L11.0537 16.0378ZM45.4395 14.5876C46.9004 14.9313 48.5118 15.9626 49.4034 17.1227C49.6397 17.4343 49.8223 17.6921 49.8116 17.7028C49.8008 17.7136 49.4248 17.6491 48.9844 17.5632C48.3721 17.445 47.7383 17.4235 46.4063 17.4665C45.4287 17.4987 44.4834 17.5632 44.2901 17.5954L43.9571 17.6598L43.9463 16.0378L43.9356 14.4157H44.333C44.5586 14.4157 45.0528 14.4909 45.4395 14.5876ZM13.793 14.738C14.7491 15.0065 15.7373 15.4792 16.6827 16.1022C17.5743 16.693 19.2286 18.2507 20.0879 19.3034C20.8291 20.2165 21.8389 21.6989 21.7852 21.8171C21.7207 21.9567 20.7862 23.1061 20.7217 23.1061C20.6895 23.1169 20.6143 23.0094 20.5498 22.8698C20.3135 22.3649 19.4971 21.4626 18.6807 20.818C17.3594 19.7653 15.3721 18.8093 13.2452 18.1755C12.6543 17.9928 12.4717 17.8962 12.418 17.7136C12.3321 17.402 12.3321 16.36 12.418 15.3503C12.4932 14.5446 12.5039 14.5231 12.7725 14.5231C12.9229 14.5231 13.3848 14.6198 13.793 14.738ZM42.5713 15.404C42.6573 16.5104 42.668 17.402 42.5821 17.7136C42.5284 17.8962 42.3457 17.9928 41.7549 18.1755C38.3926 19.1745 35.75 20.818 34.6006 22.6335L34.3106 23.0846L33.752 22.4723C33.4405 22.1286 33.1934 21.8171 33.1934 21.7741C33.1934 21.6559 34.2998 20.0553 34.9121 19.3034C35.7715 18.2507 37.4258 16.693 38.3174 16.1022C39.585 15.2536 41.3145 14.5553 42.1739 14.5339L42.5069 14.5231L42.5713 15.404ZM10.42 18.9704L11.1075 19.0886L11.3116 20.1091C11.4727 20.9684 11.7735 21.9675 12.0743 22.6872C12.1172 22.8053 11.9453 22.9772 11.4619 23.278C11.0967 23.5143 10.42 24.0622 9.95804 24.5026L9.12015 25.3083L8.50785 25.0075C6.76761 24.1589 4.62992 22.3649 4.14652 21.3552C3.60941 20.2165 4.15726 19.443 5.80082 19.0134C6.62797 18.7985 9.30277 18.7663 10.42 18.9704ZM49.0703 18.9811C50.8213 19.3893 51.4121 20.2057 50.8106 21.4089C50.2627 22.4616 48.2325 24.1589 46.4922 25.0075L45.8799 25.2975L45.0313 24.5026C44.5586 24.0514 43.8819 23.5036 43.5166 23.2673C43.0547 22.9772 42.8828 22.8053 42.9258 22.6872C43.2266 21.9675 43.5274 20.9684 43.6885 20.1091L43.8926 19.0886L44.5801 18.9704C45.6436 18.777 48.2217 18.7878 49.0703 18.9811ZM13.8252 19.7975C16.0596 20.5817 18.0254 21.7956 18.96 22.9772C19.4219 23.568 19.7657 24.3307 19.626 24.4704C19.5938 24.5026 18.7237 24.2663 17.6924 23.9333C16.6612 23.6003 15.7373 23.3317 15.6407 23.3317C15.3936 23.3317 15.0391 23.7184 15.0391 23.9977C15.0391 24.4167 15.3721 24.61 17.2305 25.2223C18.2403 25.5553 19.1104 25.8669 19.1641 25.9206C19.3252 26.071 18.2725 26.6403 17.4991 26.8122C15.8448 27.1989 12.9981 26.8552 10.8067 26.0173L10.4952 25.8991L10.8067 25.5768C11.2793 25.0827 12.3321 24.3093 13.0088 23.9655C13.8682 23.5358 13.9219 23.3425 13.4385 22.3219C13.1592 21.7526 12.8584 20.7751 12.6328 19.7546C12.5469 19.3786 12.6328 19.3786 13.8252 19.7975ZM42.3672 19.7546C42.1416 20.7751 41.8409 21.7526 41.5616 22.3219C41.0782 23.3425 41.1319 23.5358 41.9912 23.9655C42.668 24.3093 43.7207 25.0827 44.1934 25.5768L44.5049 25.8991L44.1934 26.0173C42.002 26.8552 39.1553 27.1989 37.501 26.8122C36.7276 26.6403 35.6748 26.071 35.836 25.9098C35.8897 25.8669 36.7276 25.5661 37.6944 25.2546C39.5743 24.6423 39.961 24.4382 39.961 24.0192C39.961 23.7292 39.6172 23.3317 39.3594 23.3317C39.2627 23.3317 38.3389 23.6003 37.3077 23.9333C36.2764 24.2663 35.4063 24.5026 35.3741 24.4704C35.2237 24.3307 35.5782 23.5573 36.0616 22.9665C37.0391 21.7526 38.7686 20.6677 41.0352 19.8405C42.3243 19.3786 42.4532 19.3678 42.3672 19.7546ZM28.9502 21.1296C30.1534 21.3766 31.378 22.0427 32.2803 22.945C33.5479 24.2018 34.2354 25.7057 34.3428 27.4675C34.5254 30.5827 32.5166 33.4723 29.4873 34.4284C28.4239 34.7614 26.5762 34.7614 25.5127 34.4284C22.4727 33.4616 20.4639 30.5827 20.668 27.4675C20.7754 25.6735 21.4092 24.2663 22.6661 22.9987C24.3311 21.3337 26.6299 20.6462 28.9502 21.1296ZM5.74711 24.9645C6.04789 25.1686 6.69242 25.5768 7.1973 25.8669C7.70218 26.1462 8.12113 26.3932 8.14261 26.404C8.1641 26.4147 7.92777 26.7585 7.62699 27.1559C7.31547 27.5641 6.918 28.1442 6.73539 28.4557C6.54203 28.7673 6.33793 29.0251 6.28422 29.0251C6.14457 29.0251 5.05961 27.9186 4.73734 27.446C4.02836 26.3932 3.60941 25.1579 3.48051 23.7077L3.40531 22.8483L4.30765 23.7077C4.80179 24.1911 5.45707 24.7497 5.74711 24.9645ZM51.4014 24.5348C51.1651 25.9206 50.5205 27.2204 49.5752 28.2516C49.1778 28.6813 48.8018 29.0251 48.7373 29.0251C48.6621 29.0251 48.458 28.7673 48.2647 28.4557C48.0821 28.1442 47.6739 27.5641 47.3731 27.1452C47.0616 26.737 46.8575 26.3825 46.9327 26.361C47.2012 26.2751 49.0811 25.0934 49.6289 24.6637C49.9512 24.4167 50.5098 23.9118 50.8643 23.5466L51.5088 22.8913L51.541 23.2136C51.5625 23.3962 51.4981 23.987 51.4014 24.5348ZM10.8604 27.4782C13.6641 28.445 16.5752 28.6169 18.5518 27.9401C18.8848 27.8327 19.1748 27.7575 19.1963 27.779C19.2178 27.8005 19.2715 28.1657 19.3252 28.5954L19.4004 29.3688L18.9707 29.5622C18.1543 29.9059 16.5 30.4216 15.4688 30.6471C13.9864 30.9694 11.3975 31.0446 10.1944 30.8083C9.34574 30.6364 7.78812 30.0886 7.59476 29.8952C7.48734 29.7878 8.02445 28.9069 8.89457 27.7575C9.335 27.1667 9.52836 26.9948 9.65726 27.0485C9.75394 27.0807 10.2911 27.2848 10.8604 27.4782ZM46.1055 27.7575C46.9649 28.9177 47.5127 29.7985 47.4053 29.8952C47.2119 30.0886 45.6543 30.6364 44.8057 30.8083C44.086 30.9479 43.5489 30.9694 42.2276 30.9264C40.0791 30.8512 38.9834 30.6257 36.545 29.7555L35.6534 29.4333L35.7285 28.6061C35.7715 28.155 35.8145 27.779 35.8252 27.7575C35.836 27.7468 36.126 27.8327 36.4805 27.9509C37.5547 28.3268 38.919 28.445 40.3799 28.2946C41.7334 28.1657 43.6778 27.7038 44.7412 27.2634C45.0957 27.1237 45.418 26.9948 45.4502 26.9948C45.4932 26.9841 45.7832 27.3386 46.1055 27.7575ZM7.39066 31.3239C8.75492 32.0007 10.4414 32.3552 12.375 32.3552H13.6641L12.8692 32.8815C11.3545 33.8913 10.2159 35.1052 9.29203 36.652C9.06644 37.0387 8.86234 37.3718 8.8516 37.3932C8.80863 37.4362 6.14457 36.0397 5.39261 35.5778C4.91996 35.2878 4.83402 35.1911 4.89847 34.9977C4.99515 34.6432 6.74613 31.0661 6.82133 31.0661C6.85355 31.0661 7.11136 31.1843 7.39066 31.3239ZM49.1455 32.9137C49.6397 33.9343 50.0694 34.8796 50.1016 34.9977C50.166 35.1911 50.0801 35.2878 49.6075 35.5778C48.4258 36.3083 46.1485 37.4469 46.1055 37.318C46.084 37.2536 45.7403 36.695 45.3321 36.0827C44.5049 34.8366 43.42 33.7516 42.1416 32.8923L41.336 32.3552H42.625C44.5479 32.3552 46.3633 31.9792 47.6416 31.3024C47.878 31.1735 48.1143 31.0768 48.1573 31.0661C48.211 31.0661 48.6514 31.904 49.1455 32.9137ZM20.4854 32.1081L20.9151 32.8386L20.4209 32.9675C18.3369 33.5046 15.8985 35.5026 14.0508 38.1882C13.6963 38.7145 13.3526 39.112 13.2774 39.0905C13.2129 39.069 12.8692 38.9616 12.5147 38.8542C11.376 38.5319 10.2051 38.0378 10.2051 37.8874C10.2051 37.5973 11.5049 35.8034 12.1065 35.2555C13.4278 34.0524 14.9746 33.0964 16.7686 32.3766C17.8965 31.9362 19.5616 31.4098 19.8838 31.3991C19.9805 31.3884 20.2383 31.6891 20.4854 32.1081ZM36.9854 31.9362C40.251 32.9997 42.7647 34.6969 44.1397 36.7702C44.5049 37.3073 44.795 37.8014 44.795 37.8874C44.795 38.0378 43.6241 38.5319 42.4854 38.8542C42.1309 38.9616 41.7871 39.069 41.7119 39.0905C41.6475 39.1227 41.3467 38.779 41.0459 38.3386C39.9395 36.695 38.3604 35.0514 36.9854 34.1061C36.2227 33.5798 34.708 32.8923 34.3106 32.8923C34.1065 32.8923 34.1172 32.8708 34.5899 32.0436C34.9551 31.3991 34.9766 31.3884 35.3418 31.4528C35.5459 31.485 36.2871 31.6999 36.9854 31.9362ZM21.8819 34.3317C21.8496 34.4069 21.3125 35.1911 20.6787 36.0612C19.4541 37.78 19.3682 38.0163 19.8838 38.3923C20.3457 38.736 20.5928 38.5319 21.8711 36.7702C22.5157 35.8786 23.0743 35.1481 23.1065 35.1481C23.2676 35.1481 23.418 35.8678 23.418 36.652C23.418 37.7048 23.0528 38.9938 22.3868 40.3366C21.9034 41.2819 20.7647 43.0651 20.4746 43.3014C20.2383 43.4948 19.5401 41.6471 19.293 40.1862C19.1748 39.5202 19.0889 39.4987 16.9619 39.4987C15.92 39.4987 15.0284 39.4665 14.9854 39.4235C14.8565 39.2946 15.877 37.9626 16.919 36.8776C18.5948 35.1374 20.1739 34.2136 21.4737 34.1921C21.8174 34.1813 21.9248 34.2136 21.8819 34.3317ZM35.084 34.6003C36.126 35.0837 36.9854 35.7389 38.0811 36.8776C39.1231 37.9626 40.1436 39.2946 40.0147 39.4235C39.9717 39.4665 39.0801 39.4987 38.0166 39.4987C36.459 39.4987 36.0723 39.5309 35.9434 39.6598C35.8467 39.7458 35.7071 40.1969 35.6211 40.6481C35.4815 41.3571 34.9981 42.7751 34.708 43.28C34.6436 43.4089 34.5577 43.3552 34.2998 43.0221C33.0645 41.443 32.0332 39.3913 31.6787 37.8444C31.4639 36.9098 31.6035 35.1481 31.8828 35.1481C31.9258 35.1481 32.4844 35.8786 33.1289 36.7702C34.4073 38.5319 34.6543 38.736 35.1162 38.3923C35.6319 38.0163 35.5459 37.78 34.3213 36.0612C33.6875 35.1911 33.1504 34.3962 33.1075 34.3102C33 34.0309 34.2569 34.2136 35.084 34.6003ZM25.6524 35.8678C26.0498 35.9645 26.4043 36.0934 26.4473 36.1579C26.5655 36.3298 26.544 39.2731 26.4258 40.3044C26.2647 41.5827 25.8457 43.2907 25.4483 44.236C25.083 45.1061 24.3203 46.3093 23.6543 47.0612L23.2354 47.5339L22.5586 46.6852C22.1827 46.2233 21.7207 45.5895 21.5166 45.2887L21.1514 44.7302L21.8389 43.8063C23.794 41.153 24.8145 38.6823 24.8145 36.5661C24.8145 36.0827 24.836 35.6852 24.8682 35.6852C24.9004 35.6852 25.2549 35.7604 25.6524 35.8678ZM30.1856 36.5661C30.1856 38.6608 31.2061 41.153 33.1075 43.7311L33.8487 44.7302L33.4834 45.2887C33.2793 45.5895 32.8174 46.2233 32.4414 46.6852L31.7647 47.5339L31.3457 47.0612C29.3799 44.8483 28.4668 41.905 28.4668 37.8337C28.4668 36.9743 28.5098 36.2223 28.5528 36.1579C28.6065 36.0612 29.5625 35.7819 30.1104 35.696C30.1534 35.696 30.1856 36.0827 30.1856 36.5661ZM11.1612 39.8425C11.9668 40.111 12.6328 40.3473 12.6436 40.3581C12.6651 40.3688 12.4502 40.863 12.1924 41.4753C11.5909 42.8288 11.1934 44.1823 11.1075 45.1491C11.0645 45.5573 11 45.8903 10.9571 45.8903C10.8282 45.8903 10.2481 44.945 9.93656 44.236C9.5391 43.3444 9.34574 42.4206 9.34574 41.4216C9.34574 40.6159 9.52836 39.3376 9.64652 39.3376C9.668 39.3376 10.3555 39.5632 11.1612 39.8425ZM45.5362 39.9499C45.8047 41.3249 45.6328 42.9577 45.0635 44.236C44.7305 44.988 44.1719 45.8903 44.0323 45.8903C43.9785 45.8903 43.9356 45.7184 43.9356 45.5143C43.9356 44.569 43.42 42.7966 42.6573 41.11C42.4746 40.7126 42.335 40.3688 42.3457 40.3581C42.4209 40.3044 45.1924 39.3591 45.2891 39.3483C45.3535 39.3376 45.461 39.6169 45.5362 39.9499ZM16.4034 40.9167L18.0362 40.9811L18.1114 41.3141C18.2403 41.9372 18.6162 42.9362 19.0244 43.7634L19.4327 44.5798L18.7237 45.2565C16.9297 46.9323 15.168 47.9421 13.9434 48.0173C13.2344 48.0602 13.2022 48.0495 12.8477 47.695C12.5469 47.3942 12.4717 47.2223 12.4073 46.696C12.2569 45.5036 12.708 43.6344 13.5996 41.7116L14.0723 40.7126L14.4161 40.777C14.6094 40.82 15.501 40.8737 16.4034 40.9167ZM41.3575 41.6257C42.711 44.5046 43.001 46.9968 42.0772 47.7809C41.7764 48.028 41.6797 48.0602 41.0459 48.0173C39.8321 47.9421 38.1241 46.9538 36.2871 45.2565L35.5674 44.5905L36.0293 43.6559C36.2764 43.1296 36.5987 42.3132 36.7383 41.8298L36.9961 40.9489L38.2315 40.9382C38.919 40.9382 39.6924 40.8952 39.961 40.8522C40.9385 40.6696 40.9063 40.6481 41.3575 41.6257ZM27.8008 43.3229C28.295 45.1169 29.0362 46.4919 30.2608 47.8991L30.8409 48.5759L29.8633 49.5427C29.3155 50.069 28.5635 50.778 28.1875 51.111L27.5 51.7126L26.6729 50.9821C26.2217 50.5739 25.4698 49.8649 25.0078 49.403L24.17 48.5759L24.7715 47.8561C25.9854 46.4274 26.8125 44.8698 27.253 43.1725C27.3604 42.7751 27.4678 42.4528 27.5 42.4528C27.5323 42.4528 27.6612 42.8503 27.8008 43.3229ZM21.3555 47.3835C21.9571 48.1569 22.1182 48.4147 22 48.4899C21.4844 48.8337 20.1953 49.36 19.5293 49.4997C18.5625 49.7145 16.9834 49.6501 16.0274 49.3815L15.3399 49.1882L16.3496 48.6618C17.4561 48.0925 18.5196 47.3298 19.4971 46.4059L20.1416 45.7936L20.3565 46.0837C20.4746 46.2448 20.9258 46.8249 21.3555 47.3835ZM37.0069 47.6628C37.3614 47.9313 38.1026 48.3825 38.6504 48.6618L39.6602 49.1882L38.9727 49.3815C38.0166 49.6501 36.4375 49.7145 35.4707 49.4997C34.8047 49.36 33.5157 48.8337 33 48.4899C32.8819 48.4147 33.0537 48.1354 33.6768 47.3298C34.1387 46.7497 34.5791 46.1696 34.6651 46.03L34.8262 45.7936L35.5889 46.4811C36.0186 46.8678 36.6524 47.3942 37.0069 47.6628Z" fill="white"/>
<path d="M26.5869 6.92839C25.9317 7.58367 26.0176 8.58269 26.7696 9.0446C27.4893 9.47429 28.4346 9.18425 28.7461 8.4323C28.9717 7.89519 28.8536 7.36882 28.4131 6.92839C28.1016 6.61687 27.9942 6.5739 27.5 6.5739C27.0059 6.5739 26.8985 6.61687 26.5869 6.92839Z" fill="white"/>
<path d="M15.1465 10.527C14.6631 10.7634 14.3623 11.322 14.4375 11.8698C14.5342 12.654 15.3506 13.2233 16.1025 13.0192C17.3379 12.6862 17.5205 11.0427 16.3818 10.5056C15.9199 10.28 15.6084 10.2907 15.1465 10.527Z" fill="white"/>
<path d="M38.5968 10.5056C37.4796 11.0749 37.6729 12.697 38.8976 13.0192C39.961 13.3093 40.8956 12.1921 40.4659 11.1716C40.1759 10.4733 39.2843 10.1511 38.5968 10.5056Z" fill="white"/>
<path d="M7.99222 20.4206C7.87405 20.4743 7.63772 20.6677 7.48733 20.861C6.98245 21.4626 7.16507 22.4938 7.84183 22.8483C8.50784 23.1921 9.41019 22.9665 9.72171 22.3649C10.1729 21.4841 9.64651 20.4528 8.7012 20.3669C8.43265 20.3454 8.12112 20.3669 7.99222 20.4206Z" fill="white"/>
<path d="M45.9121 20.4206C45.794 20.4743 45.5576 20.6677 45.4073 20.861C44.9024 21.4626 45.085 22.4938 45.7617 22.8483C46.4278 23.1921 47.3301 22.9665 47.6416 22.3649C48.0928 21.4841 47.5664 20.4528 46.6211 20.3669C46.3526 20.3454 46.041 20.3669 45.9121 20.4206Z" fill="white"/>
<path d="M7.82031 32.8493C7.43359 33.0534 7.19727 33.5261 7.19727 34.0739C7.19727 34.4177 7.27246 34.5895 7.5625 34.9118C7.90625 35.277 7.9707 35.3093 8.54004 35.3093C9.10938 35.3093 9.17383 35.277 9.51758 34.9118C9.80762 34.5895 9.88281 34.4177 9.88281 34.0739C9.88281 33.2145 9.35645 32.6774 8.51855 32.6774C8.29297 32.6882 7.98145 32.7526 7.82031 32.8493Z" fill="white"/>
<path d="M45.7402 32.8493C45.3535 33.0534 45.1172 33.5261 45.1172 34.0739C45.1172 34.4177 45.1924 34.5895 45.4824 34.9118C45.8262 35.277 45.8906 35.3093 46.46 35.3093C47.0293 35.3093 47.0938 35.277 47.4375 34.9118C47.7275 34.5895 47.8027 34.4177 47.8027 34.0739C47.8027 33.2145 47.2764 32.6774 46.4385 32.6774C46.2129 32.6882 45.9014 32.7526 45.7402 32.8493Z" fill="white"/>
<path d="M15.3076 42.7106C14.7275 42.9792 14.4482 43.3766 14.4482 43.9567C14.4482 44.5905 14.7275 45.0202 15.2861 45.235C16.4248 45.6647 17.5313 44.5153 17.0049 43.4518C16.6504 42.7429 15.9307 42.4206 15.3076 42.7106Z" fill="white"/>
<path d="M38.8437 42.6676C37.8555 42.9684 37.5332 44.193 38.2637 44.9235C39.1338 45.7936 40.5518 45.2028 40.5518 43.9567C40.5518 43.3659 40.2617 42.9577 39.6709 42.7106C39.2842 42.5387 39.2734 42.5387 38.8437 42.6676Z" fill="white"/>
<path d="M26.7696 46.6423C26.0176 47.1042 25.9317 48.1032 26.5869 48.7585C26.8985 49.07 27.0059 49.113 27.5 49.113C27.9942 49.113 28.1016 49.07 28.4131 48.7585C28.6172 48.5544 28.7998 48.2429 28.8428 48.0173C28.9932 47.2224 28.3272 46.4274 27.5 46.4274C27.2959 46.4274 26.9629 46.5241 26.7696 46.6423Z" fill="white"/>
</svg>
