<svg width="51" height="50" viewBox="0 0 51 50" fill="none" xmlns="http://www.w3.org/2000/svg">
<rect x="0.85144" width="50" height="50" rx="25" fill="#541284"/>
<path d="M13.4613 38.0528C13.2451 38.3775 12.8025 38.4679 12.4729 38.2548C12.1395 38.0394 11.8203 37.803 11.5179 37.547L10.6251 36.7938C10.3251 36.5413 10.2899 36.097 10.5466 35.8019C10.803 35.5064 11.2539 35.4716 11.5535 35.7245L12.4464 36.4788C12.7027 36.6952 12.9727 36.8955 13.2552 37.0783C13.5855 37.291 13.6779 37.7278 13.4613 38.0528V38.0528ZM19.3036 38.259C18.8617 38.3328 18.4146 38.3703 17.9664 38.3703H17.6372C16.8601 38.3703 16.0869 38.2583 15.3429 38.0373C14.9649 37.9257 14.5666 38.1366 14.4529 38.5088C14.3392 38.8812 14.5537 39.274 14.9314 39.3856C15.8092 39.6454 16.7206 39.7777 17.6372 39.7777H17.9664C18.4944 39.7777 19.0214 39.7337 19.5421 39.6468C19.931 39.5818 20.193 39.2187 20.127 38.8355C20.0611 38.4521 19.6925 38.1944 19.3036 38.259ZM40.1487 35.7259L39.2558 36.4801C38.9995 36.6966 38.7292 36.8969 38.447 37.0797C38.1174 37.2934 38.026 37.7302 38.243 38.0549C38.4599 38.3799 38.9032 38.4699 39.2328 38.2562C39.5662 38.0422 39.885 37.8071 40.1877 37.5525L41.0806 36.799C41.3805 36.5464 41.4158 36.1022 41.1594 35.8067C40.9027 35.5115 40.4521 35.4768 40.1522 35.7294L40.1487 35.7259ZM36.3627 38.0387C35.6178 38.2597 34.8438 38.3713 34.0657 38.3703H33.7365C33.2883 38.37 32.8412 38.3328 32.3993 38.259C32.0104 38.1944 31.6418 38.4521 31.5758 38.8355C31.5099 39.2187 31.7719 39.5818 32.1607 39.6468C32.6814 39.7337 33.2084 39.7777 33.7365 39.7777H34.0657C34.9823 39.7777 35.8936 39.6454 36.7715 39.3856C37.1492 39.274 37.3637 38.8812 37.25 38.5088C37.1363 38.1366 36.738 37.9257 36.36 38.0373L36.3627 38.0387ZM42.7477 31.5044C42.9061 31.6381 42.9971 31.8332 42.9971 32.0384C42.9971 32.2438 42.9061 32.4387 42.7477 32.5727L40.1909 34.7329C38.484 36.1712 36.3118 36.9619 34.0657 36.9629H33.7372C32.7676 36.9636 31.8036 36.8158 30.88 36.5251C30.3318 39.4506 28.6904 42.0675 26.2801 43.859C26.0262 44.047 25.6767 44.047 25.4228 43.859C23.011 42.0678 21.369 39.4506 20.8201 36.5245C19.8965 36.8158 18.9325 36.9636 17.9629 36.9629H17.6372C15.3921 36.9608 13.2217 36.1699 11.5159 34.7322L8.95796 32.5709C8.79961 32.4373 8.70858 32.2425 8.70858 32.037C8.70858 31.8315 8.79961 31.6367 8.95796 31.503L11.5152 29.3424C12.393 28.6037 13.402 28.0312 14.4916 27.6536C13.8129 26.5094 13.3539 25.2522 13.1373 23.9444L11.9727 16.6682C11.9375 16.4459 12.0122 16.2205 12.1733 16.0614C12.3348 15.9023 12.5639 15.8288 12.7892 15.8639L17.905 16.659L19.5401 12.7711C19.6276 12.5632 19.8104 12.4093 20.0322 12.3567C20.254 12.3024 20.4887 12.3577 20.6621 12.5044L22.4349 13.9885L25.2313 9.16666C25.3691 8.96153 25.6017 8.83783 25.8514 8.83783C26.1012 8.83783 26.3338 8.96153 26.4716 9.16666L29.2663 13.9819L31.0394 12.4979C31.2135 12.3526 31.4475 12.2976 31.6693 12.3505C31.8911 12.4034 32.0742 12.5577 32.1614 12.7652L33.8171 16.7126L39.3116 15.858C39.5373 15.8209 39.7671 15.8944 39.9279 16.0552C40.0894 16.2143 40.164 16.4401 40.1284 16.6624L38.9628 23.9389C38.7414 25.2955 38.2562 26.5974 37.5343 27.7732C38.499 28.1494 39.3943 28.6796 40.1842 29.3424L42.7477 31.5044ZM32.1513 18.3986C27.7624 19.0814 24.4379 22.6659 24.1421 27.0338L24.1156 27.4334C24.0385 28.5697 24.463 29.6833 25.2802 30.4887C25.5815 30.7863 25.9289 31.0347 26.3094 31.225C26.3191 31.2285 26.3272 31.2326 26.3366 31.2367C26.9689 31.548 27.6748 31.6862 28.38 31.6367L28.7857 31.6099C31.7349 31.4085 34.4239 29.876 36.0715 27.4581C36.835 26.3325 37.34 25.0567 37.5514 23.7193L38.5656 17.4001L32.1513 18.3986ZM29.9879 15.2275L30.4573 16.037C30.6715 16.4013 30.872 16.7912 31.0701 17.1902C31.3558 17.1197 31.6414 17.0538 31.9271 17.0094L32.3651 16.939L31.2149 14.1946L29.9879 15.2275ZM22.0784 17.4795C23.5722 17.9846 24.9303 18.8164 26.0513 19.9122C26.5172 19.4586 27.024 19.0477 27.5657 18.6848C28.2311 18.2495 28.943 17.887 29.6886 17.6042C29.5366 17.3056 29.3807 17.0149 29.2171 16.7342L25.8514 10.9366L22.4858 16.7363C22.3515 16.9778 22.2137 17.2235 22.0784 17.4815V17.4795ZM19.358 16.8792L20.1706 17.006C20.3349 17.029 20.5023 17.0579 20.6778 17.094C20.865 16.7273 21.052 16.3741 21.2435 16.0384L21.715 15.2248L20.4856 14.1981L19.358 16.8792ZM14.5502 23.7207C14.7643 25.0567 15.2693 26.3311 16.0307 27.4567L16.1737 27.6543C16.963 28.7655 17.9898 29.6926 19.1822 30.3705C19.9788 30.8213 20.8375 31.156 21.7314 31.3642C22.2493 31.4913 22.7781 31.5728 23.3106 31.6071L23.7243 31.636C23.9559 31.6466 24.1881 31.6387 24.4187 31.6119C24.3699 31.5676 24.3186 31.5274 24.2722 31.481C23.1628 30.3894 22.5869 28.8789 22.6923 27.3375L22.7184 26.9379C22.8768 24.7519 23.7047 22.6648 25.0929 20.9523C23.9283 19.8077 22.4746 18.9903 20.8821 18.5842C20.5763 18.5058 20.2662 18.4433 19.9537 18.3966L13.5387 17.4001L14.5502 23.7207ZM21.1064 34.9222C22.0411 34.5309 22.89 33.9653 23.6064 33.2564L23.8209 33.0455C23.7585 33.0455 23.6957 33.0455 23.6329 33.0396L23.2207 33.0108C22.6068 32.9709 21.9982 32.8764 21.4015 32.7293C18.9845 32.1744 16.8381 30.8093 15.33 28.8676C14.2712 29.1772 13.2897 29.7008 12.4478 30.4052L10.5201 32.037L12.4485 33.6639C13.8948 34.8824 15.7343 35.5531 17.6372 35.5555H17.9657C19.0455 35.5565 20.1141 35.3411 21.1064 34.9222V34.9222ZM29.5292 35.9778C28.6266 35.5366 27.8028 34.9545 27.0892 34.2536L25.8514 33.0321L24.6136 34.2515C23.9004 34.9531 23.0763 35.5362 22.1736 35.9778C22.5695 38.4864 23.8763 40.7683 25.8514 42.3991C27.8265 40.7683 29.1334 38.4864 29.5292 35.9778ZM41.1828 32.037L39.2579 30.41C38.5011 29.7795 37.6323 29.2919 36.6958 28.9724C34.7772 31.334 31.9448 32.7991 28.8823 33.0138L28.4763 33.0403C28.3556 33.0482 28.2343 33.0516 28.1136 33.0516C28.0358 33.0516 27.958 33.0441 27.8799 33.0403L28.0993 33.2564C28.8146 33.9646 29.6621 34.5302 30.5951 34.9222C31.588 35.3411 32.6574 35.5565 33.7379 35.5555H34.0664C35.9707 35.5538 37.8122 34.8827 39.2593 33.6633L41.1828 32.037ZM5.85144 32.7407H7.28001V31.3333H5.85144V32.7407ZM11.5657 13.7407H10.1372V15.1481H11.5657V13.7407ZM26.5657 7.4074V6H25.1372V7.4074H26.5657ZM41.5657 13.7407H40.1372V15.1481H41.5657V13.7407ZM44.4229 32.7407H45.8514V31.3333H44.4229V32.7407Z" fill="white"/>
</svg>
