<svg width="167" height="115" viewBox="0 0 167 115" fill="none" xmlns="http://www.w3.org/2000/svg">
<g filter="url(#filter0_d_175_2)">
<path d="M56.3314 64.6633V59.3033L56.7914 60.5433L50.7714 50.6633H52.9114L57.9714 59.0033H56.8114L61.8914 50.6633H63.8714L57.8714 60.5433L58.3114 59.3033V64.6633H56.3314ZM73.6152 64.8233C72.5485 64.8233 71.5552 64.6433 70.6352 64.2833C69.7285 63.9233 68.9419 63.4233 68.2752 62.7833C67.6085 62.13 67.0885 61.37 66.7152 60.5033C66.3419 59.6367 66.1552 58.69 66.1552 57.6633C66.1552 56.6367 66.3419 55.69 66.7152 54.8233C67.0885 53.9567 67.6085 53.2033 68.2752 52.5633C68.9419 51.91 69.7285 51.4033 70.6352 51.0433C71.5419 50.6833 72.5352 50.5033 73.6152 50.5033C74.6819 50.5033 75.6619 50.6833 76.5552 51.0433C77.4619 51.39 78.2485 51.89 78.9152 52.5433C79.5952 53.1833 80.1152 53.9367 80.4752 54.8033C80.8485 55.67 81.0352 56.6233 81.0352 57.6633C81.0352 58.7033 80.8485 59.6567 80.4752 60.5233C80.1152 61.39 79.5952 62.15 78.9152 62.8033C78.2485 63.4433 77.4619 63.9433 76.5552 64.3033C75.6619 64.65 74.6819 64.8233 73.6152 64.8233ZM73.6152 63.0433C74.3885 63.0433 75.1019 62.91 75.7552 62.6433C76.4219 62.3767 76.9952 62.0033 77.4752 61.5233C77.9685 61.03 78.3485 60.4567 78.6152 59.8033C78.8952 59.15 79.0352 58.4367 79.0352 57.6633C79.0352 56.89 78.8952 56.1767 78.6152 55.5233C78.3485 54.87 77.9685 54.3033 77.4752 53.8233C76.9952 53.33 76.4219 52.95 75.7552 52.6833C75.1019 52.4167 74.3885 52.2833 73.6152 52.2833C72.8285 52.2833 72.1019 52.4167 71.4352 52.6833C70.7819 52.95 70.2085 53.33 69.7152 53.8233C69.2219 54.3033 68.8352 54.87 68.5552 55.5233C68.2885 56.1767 68.1552 56.89 68.1552 57.6633C68.1552 58.4367 68.2885 59.15 68.5552 59.8033C68.8352 60.4567 69.2219 61.03 69.7152 61.5233C70.2085 62.0033 70.7819 62.3767 71.4352 62.6433C72.1019 62.91 72.8285 63.0433 73.6152 63.0433ZM92.4121 64.8233C91.3321 64.8233 90.3387 64.65 89.4321 64.3033C88.5254 63.9433 87.7387 63.4433 87.0721 62.8033C86.4054 62.15 85.8854 61.39 85.5121 60.5233C85.1387 59.6567 84.9521 58.7033 84.9521 57.6633C84.9521 56.6233 85.1387 55.67 85.5121 54.8033C85.8854 53.9367 86.4054 53.1833 87.0721 52.5433C87.7521 51.89 88.5454 51.39 89.4521 51.0433C90.3587 50.6833 91.3587 50.5033 92.4521 50.5033C93.5587 50.5033 94.5721 50.6833 95.4921 51.0433C96.4121 51.4033 97.1921 51.9433 97.8321 52.6633L96.5921 53.9033C96.0187 53.3433 95.3921 52.9367 94.7121 52.6833C94.0454 52.4167 93.3187 52.2833 92.5321 52.2833C91.7321 52.2833 90.9854 52.4167 90.2921 52.6833C89.6121 52.95 89.0187 53.3233 88.5121 53.8033C88.0187 54.2833 87.6321 54.8567 87.3521 55.5233C87.0854 56.1767 86.9521 56.89 86.9521 57.6633C86.9521 58.4233 87.0854 59.1367 87.3521 59.8033C87.6321 60.4567 88.0187 61.03 88.5121 61.5233C89.0187 62.0033 89.6121 62.3767 90.2921 62.6433C90.9721 62.91 91.7121 63.0433 92.5121 63.0433C93.2587 63.0433 93.9721 62.93 94.6521 62.7033C95.3454 62.4633 95.9854 62.07 96.5721 61.5233L97.7121 63.0433C97.0187 63.63 96.2054 64.0767 95.2721 64.3833C94.3521 64.6767 93.3987 64.8233 92.4121 64.8233ZM95.7921 62.7833V57.5833H97.7121V63.0433L95.7921 62.7833ZM101.421 64.6633L107.761 50.6633H109.741L116.101 64.6633H114.001L108.341 51.7833H109.141L103.481 64.6633H101.421ZM104.121 61.1633L104.661 59.5633H112.541L113.121 61.1633H104.121Z" fill="url(#paint0_linear_175_2)"/>
</g>
<path d="M18.4613 69.7161C18.2451 70.0408 17.8025 70.1312 17.4729 69.9182C17.1395 69.7027 16.8203 69.4663 16.5179 69.2103L15.6251 68.4572C15.3251 68.2046 15.2899 67.7603 15.5466 67.4652C15.803 67.1697 16.2539 67.135 16.5535 67.3879L17.4464 68.1421C17.7027 68.3586 17.9727 68.5589 18.2552 68.7417C18.5855 68.9544 18.6779 69.3911 18.4613 69.7161V69.7161ZM24.3036 69.9223C23.8617 69.9962 23.4146 70.0336 22.9664 70.0336H22.6372C21.8601 70.0336 21.0869 69.9216 20.3429 69.7007C19.9649 69.589 19.5666 69.8 19.4529 70.1721C19.3392 70.5446 19.5537 70.9373 19.9314 71.049C20.8092 71.3087 21.7206 71.441 22.6372 71.441H22.9664C23.4944 71.441 24.0214 71.397 24.5421 71.3101C24.931 71.2452 25.193 70.882 25.127 70.4989C25.0611 70.1154 24.6925 69.8577 24.3036 69.9223ZM45.1487 67.3892L44.2558 68.1435C43.9995 68.3599 43.7292 68.5603 43.447 68.743C43.1174 68.9568 43.026 69.3935 43.243 69.7182C43.4599 70.0432 43.9032 70.1333 44.2328 69.9195C44.5662 69.7055 44.885 69.4705 45.1877 69.2158L46.0806 68.4623C46.3805 68.2098 46.4158 67.7655 46.1594 67.47C45.9027 67.1748 45.4521 67.1401 45.1522 67.3927L45.1487 67.3892ZM41.3627 69.702C40.6178 69.923 39.8438 70.0347 39.0657 70.0336H38.7365C38.2883 70.0333 37.8412 69.9962 37.3993 69.9223C37.0104 69.8577 36.6418 70.1154 36.5758 70.4989C36.5099 70.882 36.7719 71.2452 37.1607 71.3101C37.6814 71.397 38.2084 71.441 38.7365 71.441H39.0657C39.9823 71.441 40.8936 71.3087 41.7715 71.049C42.1492 70.9373 42.3637 70.5446 42.25 70.1721C42.1363 69.8 41.738 69.589 41.36 69.7007L41.3627 69.702ZM47.7477 63.1677C47.9061 63.3014 47.9971 63.4966 47.9971 63.7017C47.9971 63.9072 47.9061 64.102 47.7477 64.236L45.1909 66.3962C43.484 67.8346 41.3118 68.6252 39.0657 68.6262H38.7372C37.7676 68.6269 36.8036 68.4792 35.88 68.1885C35.3318 71.1139 33.6904 73.7308 31.2801 75.5224C31.0262 75.7103 30.6767 75.7103 30.4228 75.5224C28.011 73.7312 26.369 71.1139 25.8201 68.1878C24.8965 68.4792 23.9325 68.6269 22.9629 68.6262H22.6372C20.3921 68.6242 18.2217 67.8332 16.5159 66.3955L13.958 64.2343C13.7996 64.1006 13.7086 63.9058 13.7086 63.7003C13.7086 63.4948 13.7996 63.3 13.958 63.1663L16.5152 61.0058C17.393 60.267 18.402 59.6946 19.4916 59.3169C18.8129 58.1727 18.3539 56.9155 18.1373 55.6077L16.9727 48.3316C16.9375 48.1093 17.0122 47.8838 17.1733 47.7248C17.3348 47.5657 17.5639 47.4921 17.7892 47.5272L22.905 48.3223L24.5401 44.4344C24.6276 44.2265 24.8104 44.0726 25.0322 44.02C25.254 43.9657 25.4887 44.021 25.6621 44.1678L27.4349 45.6518L30.2313 40.83C30.3691 40.6249 30.6017 40.5012 30.8514 40.5012C31.1012 40.5012 31.3338 40.6249 31.4716 40.83L34.2663 45.6453L36.0394 44.1612C36.2135 44.0159 36.4475 43.9609 36.6693 44.0138C36.8911 44.0667 37.0742 44.221 37.1614 44.4286L38.8171 48.3759L44.3116 47.5213C44.5373 47.4842 44.7671 47.5578 44.9279 47.7186C45.0894 47.8777 45.164 48.1034 45.1284 48.3257L43.9628 55.6022C43.7414 56.9588 43.2562 58.2607 42.5343 59.4365C43.499 59.8128 44.3943 60.3429 45.1842 61.0058L47.7477 63.1677ZM37.1513 50.062C32.7624 50.7447 29.4379 54.3292 29.1421 58.6971L29.1156 59.0967C29.0385 60.233 29.463 61.3466 30.2802 62.152C30.5815 62.4496 30.9289 62.698 31.3094 62.8884C31.3191 62.8918 31.3272 62.8959 31.3366 62.9001C31.9689 63.2114 32.6748 63.3495 33.38 63.3L33.7857 63.2732C36.7349 63.0719 39.4239 61.5394 41.0715 59.1214C41.835 57.9958 42.34 56.72 42.5514 55.3827L43.5656 49.0634L37.1513 50.062ZM34.9879 46.8908L35.4573 47.7004C35.6715 48.0646 35.872 48.4546 36.0701 48.8535C36.3558 48.7831 36.6414 48.7171 36.9271 48.6728L37.3651 48.6023L36.2149 45.858L34.9879 46.8908ZM27.0784 49.1428C28.5722 49.6479 29.9303 50.4798 31.0513 51.5755C31.5172 51.122 32.024 50.711 32.5657 50.3482C33.2311 49.9128 33.943 49.5503 34.6886 49.2675C34.5366 48.969 34.3807 48.6783 34.2171 48.3975L30.8514 42.5999L27.4858 48.3996C27.3515 48.6412 27.2137 48.8868 27.0784 49.1449V49.1428ZM24.358 48.5425L25.1706 48.6693C25.3349 48.6923 25.5023 48.7212 25.6778 48.7573C25.865 48.3907 26.052 48.0374 26.2435 47.7017L26.715 46.8881L25.4856 45.8614L24.358 48.5425ZM19.5502 55.384C19.7643 56.72 20.2693 57.9944 21.0307 59.1201L21.1737 59.3176C21.963 60.4288 22.9898 61.3559 24.1822 62.0338C24.9788 62.4846 25.8375 62.8193 26.7314 63.0275C27.2493 63.1547 27.7781 63.2361 28.3106 63.2705L28.7243 63.2993C28.9559 63.31 29.1881 63.3021 29.4187 63.2753C29.3699 63.2309 29.3186 63.1907 29.2722 63.1444C28.1628 62.0527 27.5869 60.5422 27.6923 59.0008L27.7184 58.6012C27.8768 56.4152 28.7047 54.3282 30.0929 52.6156C28.9283 51.4711 27.4746 50.6536 25.8821 50.2475C25.5763 50.1692 25.2662 50.1066 24.9537 50.0599L18.5387 49.0634L19.5502 55.384ZM26.1064 66.5856C27.0411 66.1942 27.89 65.6286 28.6064 64.9198L28.8209 64.7088C28.7585 64.7088 28.6957 64.7088 28.6329 64.7029L28.2207 64.6741C27.6068 64.6342 26.9982 64.5397 26.4015 64.3927C23.9845 63.8377 21.8381 62.4726 20.33 60.5309C19.2712 60.8405 18.2897 61.3641 17.4478 62.0685L15.5201 63.7003L17.4485 65.3273C18.8948 66.5457 20.7343 67.2164 22.6372 67.2188H22.9657C24.0455 67.2198 25.1141 67.0044 26.1064 66.5856V66.5856ZM34.5292 67.6411C33.6266 67.1999 32.8028 66.6179 32.0892 65.9169L30.8514 64.6954L29.6136 65.9148C28.9004 66.6165 28.0763 67.1996 27.1736 67.6411C27.5695 70.1498 28.8763 72.4316 30.8514 74.0624C32.8265 72.4316 34.1334 70.1498 34.5292 67.6411ZM46.1828 63.7003L44.2579 62.0733C43.5011 61.4428 42.6323 60.9553 41.6958 60.6357C39.7772 62.9973 36.9448 64.4624 33.8823 64.6772L33.4763 64.7036C33.3556 64.7115 33.2343 64.715 33.1136 64.715C33.0358 64.715 32.958 64.7074 32.8799 64.7036L33.0993 64.9198C33.8146 65.6279 34.6621 66.1935 35.5951 66.5856C36.588 67.0044 37.6574 67.2198 38.7379 67.2188H39.0664C40.9707 67.2171 42.8122 66.546 44.2593 65.3266L46.1828 63.7003ZM10.8514 64.404H12.28V62.9966H10.8514V64.404ZM16.5657 45.4041H15.1372V46.8115H16.5657V45.4041ZM31.5657 39.0707V37.6633H30.1372V39.0707H31.5657ZM46.5657 45.4041H45.1372V46.8115H46.5657V45.4041ZM49.4229 64.404H50.8514V62.9966H49.4229V64.404Z" fill="url(#paint1_linear_175_2)"/>
<defs>
<filter id="filter0_d_175_2" x="0.771423" y="0.503296" width="165.33" height="114.32" filterUnits="userSpaceOnUse" color-interpolation-filters="sRGB">
<feFlood flood-opacity="0" result="BackgroundImageFix"/>
<feColorMatrix in="SourceAlpha" type="matrix" values="0 0 0 0 0 0 0 0 0 0 0 0 0 0 0 0 0 0 127 0" result="hardAlpha"/>
<feOffset/>
<feGaussianBlur stdDeviation="25"/>
<feColorMatrix type="matrix" values="0 0 0 0 0.482353 0 0 0 0 0.47451 0 0 0 0 0.631373 0 0 0 0.7 0"/>
<feBlend mode="normal" in2="BackgroundImageFix" result="effect1_dropShadow_175_2"/>
<feBlend mode="normal" in="SourceGraphic" in2="effect1_dropShadow_175_2" result="shape"/>
</filter>
<linearGradient id="paint0_linear_175_2" x1="52.3514" y1="73.1633" x2="118.351" y2="46.6633" gradientUnits="userSpaceOnUse">
<stop stop-color="#F9F9FB"/>
<stop offset="1" stop-color="#D2BFDD"/>
</linearGradient>
<linearGradient id="paint1_linear_175_2" x1="17.1014" y1="70.5614" x2="44.191" y2="43.0645" gradientUnits="userSpaceOnUse">
<stop stop-color="#FDFCFF"/>
<stop offset="1" stop-color="#D4C1DE"/>
</linearGradient>
</defs>
</svg>
